<svg width="16" height="16" viewBox="0 0 16 16" fill="none" xmlns="http://www.w3.org/2000/svg">
<g clip-path="url(#clip0_3196_1568)">
<path d="M8 0C5.18859 0 2.84375 2.26469 2.84375 5.15625C2.84375 6.25631 3.17431 7.23725 3.80872 8.15644L7.60541 14.0808C7.78959 14.3688 8.21078 14.3683 8.39459 14.0808L12.2078 8.13628C12.8285 7.25875 13.1562 6.22834 13.1562 5.15625C13.1562 2.31309 10.8432 0 8 0ZM8 7.5C6.70772 7.5 5.65625 6.44853 5.65625 5.15625C5.65625 3.86397 6.70772 2.8125 8 2.8125C9.29228 2.8125 10.3438 3.86397 10.3438 5.15625C10.3438 6.44853 9.29228 7.5 8 7.5Z" fill="#8E8E8E"/>
<path d="M11.6645 10.7715L9.30416 14.4617C8.69319 15.4143 7.30341 15.4111 6.69537 14.4626L4.33119 10.7725C2.25106 11.2534 0.96875 12.1344 0.96875 13.1873C0.96875 15.0142 4.5915 15.9998 8 15.9998C11.4085 15.9998 15.0312 15.0142 15.0312 13.1873C15.0312 12.1337 13.7472 11.2522 11.6645 10.7715Z" fill="#8E8E8E"/>
</g>
<defs>
<clipPath id="clip0_3196_1568">
<rect width="16" height="16" fill="white"/>
</clipPath>
</defs>
</svg>
