<svg width="25" height="24" viewBox="0 0 25 24" fill="none" xmlns="http://www.w3.org/2000/svg">
<path d="M21.6515 1.77539H11.363C11.0044 1.77589 10.6607 1.91855 10.4071 2.17211C10.1535 2.42567 10.0109 2.76943 10.0104 3.12802V8.44701C10.0108 8.80573 10.1534 9.14964 10.4071 9.40329C10.6607 9.65694 11.0047 9.79962 11.3634 9.80002H12.4171V11.0563C12.4164 11.1673 12.4488 11.2759 12.5104 11.3683C12.572 11.4607 12.6598 11.5325 12.7625 11.5745C12.8303 11.6044 12.9033 11.6202 12.9774 11.621C13.1261 11.6208 13.2686 11.5616 13.3738 11.4564L15.0301 9.80002H21.6515C22.0095 9.79863 22.3524 9.65549 22.6051 9.40193C22.8578 9.14836 22.9998 8.80501 23 8.44701V3.12802C22.9997 2.77008 22.8577 2.42683 22.605 2.17335C22.3522 1.91986 22.0094 1.77678 21.6515 1.77539ZM13.715 6.25102C13.6235 6.25013 13.5344 6.2222 13.4588 6.17075C13.3832 6.1193 13.3244 6.04663 13.29 5.96188C13.2556 5.87713 13.2471 5.7841 13.2654 5.6945C13.2838 5.6049 13.3282 5.52273 13.3932 5.45835C13.4582 5.39396 13.5407 5.35023 13.6305 5.33266C13.7202 5.3151 13.8132 5.32448 13.8976 5.35964C13.9821 5.39479 14.0542 5.45414 14.105 5.53021C14.1558 5.60628 14.1829 5.69568 14.183 5.78714C14.1829 5.84836 14.1706 5.90896 14.147 5.96544C14.1234 6.02192 14.0888 6.07318 14.0453 6.11628C14.0019 6.15938 13.9503 6.19347 13.8936 6.21659C13.8369 6.23971 13.7762 6.25141 13.715 6.25102ZM16.505 6.25102C16.4135 6.25013 16.3244 6.2222 16.2488 6.17075C16.1732 6.1193 16.1144 6.04663 16.08 5.96188C16.0456 5.87713 16.0371 5.7841 16.0554 5.6945C16.0738 5.6049 16.1183 5.52273 16.1832 5.45835C16.2482 5.39396 16.3307 5.35023 16.4205 5.33266C16.5102 5.3151 16.6032 5.32448 16.6876 5.35964C16.7721 5.39479 16.8442 5.45414 16.895 5.53021C16.9458 5.60628 16.9729 5.69568 16.973 5.78714C16.9732 5.84846 16.9612 5.90921 16.9377 5.96586C16.9142 6.0225 16.8797 6.0739 16.8361 6.11707C16.7926 6.16024 16.7409 6.19431 16.684 6.21731C16.6272 6.2403 16.5663 6.25176 16.505 6.25102ZM19.295 6.25102C19.2035 6.25013 19.1144 6.2222 19.0388 6.17075C18.9632 6.1193 18.9044 6.04663 18.87 5.96188C18.8356 5.87713 18.8271 5.7841 18.8454 5.6945C18.8638 5.6049 18.9083 5.52273 18.9732 5.45835C19.0382 5.39396 19.1207 5.35023 19.2105 5.33266C19.3002 5.3151 19.3932 5.32448 19.4776 5.35964C19.5621 5.39479 19.6342 5.45414 19.685 5.53021C19.7358 5.60628 19.7629 5.69568 19.763 5.78714C19.7632 5.84843 19.7512 5.90915 19.7277 5.96577C19.7043 6.02238 19.6698 6.07377 19.6263 6.11693C19.5827 6.1601 19.5311 6.19418 19.4743 6.2172C19.4175 6.24022 19.3563 6.25171 19.295 6.25102ZM8.342 22.2241L9.39575 20.7973C9.68593 20.4049 10.0514 20.0742 10.4708 19.8246C10.8902 19.5751 11.3552 19.4116 11.8385 19.3438L16.0198 18.767C16.6385 18.682 17.219 18.4182 17.69 18.008L22.349 13.9693C22.4427 13.8895 22.5172 13.7895 22.5667 13.6768C22.6163 13.5641 22.6397 13.4417 22.6351 13.3186C22.6329 13.1949 22.6034 13.0732 22.5486 12.9623C22.4939 12.8513 22.4154 12.7538 22.3186 12.6766C22.1574 12.5528 21.9572 12.4908 21.7542 12.5019C21.5513 12.5131 21.359 12.5966 21.2124 12.7374L19.0261 14.8801C18.6543 15.2484 18.1568 15.4624 17.6337 15.479L14.7706 15.5874C14.641 15.7961 14.4603 15.9682 14.2455 16.0874C14.0306 16.2066 13.7889 16.2689 13.5433 16.2684H10.463C10.4055 16.2684 10.3503 16.2455 10.3096 16.2049C10.2689 16.1642 10.2461 16.109 10.2461 16.0515C10.2461 15.9939 10.2689 15.9387 10.3096 15.8981C10.3503 15.8574 10.4055 15.8345 10.463 15.8345H13.5433C13.8146 15.834 14.0747 15.726 14.2666 15.5341C14.4585 15.3422 14.5665 15.0821 14.567 14.8108C14.5633 14.5404 14.4543 14.2821 14.2631 14.0909C14.0719 13.8997 13.8136 13.7907 13.5433 13.787H9.45687C8.78926 13.7874 8.12446 13.8735 7.47875 14.0431L7.10563 14.1429C6.68199 14.2542 6.28796 14.4572 5.9514 14.7375C5.61483 15.0178 5.34394 15.3686 5.15787 15.7651L4.91525 16.277C4.58914 16.9747 4.16233 17.6207 3.6485 18.1944L2 20.0338L8.342 22.2241Z" fill="#27D97F"/>
<path d="M17.1742 11.7869L14.7363 13.9821C14.9098 14.2235 15.0023 14.5136 15.0007 14.8109C15.0013 14.9233 14.9882 15.0354 14.9617 15.1446L15.3521 15.1274L18.2193 12.5417C18.2792 12.4037 18.2901 12.2494 18.2502 12.1043C18.2104 11.9593 18.1222 11.8322 18.0003 11.7441C17.8783 11.656 17.7299 11.6122 17.5797 11.62C17.4295 11.6278 17.2864 11.6867 17.1742 11.7869ZM17.6167 15.0445C18.0318 15.032 18.4269 14.8632 18.723 14.572C18.723 14.572 20.1847 13.132 20.193 13.123C20.2563 13.061 20.3062 12.9867 20.3398 12.9046C20.3734 12.8226 20.3899 12.7346 20.3883 12.646C20.3844 12.4704 20.3112 12.3035 20.1847 12.1817C20.0622 12.0708 19.9034 12.0083 19.7381 12.0059C19.5728 12.0034 19.4123 12.0613 19.2866 12.1686L16.029 15.1056L17.6167 15.0445Z" fill="#27D97F"/>
</svg>
