<svg width="24" height="24" viewBox="0 0 24 24" fill="none" xmlns="http://www.w3.org/2000/svg">
<g clip-path="url(#clip0_2981_4548)">
<path d="M10.3196 7.34982L12 6.65311L13.6805 7.34982C13.7917 7.39576 13.9128 7.41247 14.0322 7.39836C14.1517 7.38425 14.2656 7.33978 14.363 7.26919C14.4603 7.19834 14.5378 7.10373 14.5881 6.99441C14.6384 6.88508 14.6598 6.76469 14.6503 6.64472L14.5074 4.83127L15.6891 3.44776C15.7672 3.3563 15.8206 3.24634 15.844 3.12838C15.8675 3.01042 15.8603 2.88841 15.8232 2.77402C15.7861 2.65948 15.7202 2.55641 15.6318 2.47471C15.5434 2.39301 15.4354 2.33543 15.3183 2.30752L13.5497 1.88274L12.5996 0.331365C12.3466 -0.110478 11.6534 -0.110432 11.4005 0.331365L10.4503 1.88274L8.68175 2.30752C8.56465 2.33543 8.4567 2.39301 8.36828 2.47471C8.27987 2.55641 8.21396 2.65948 8.1769 2.77402C8.13975 2.88841 8.13256 3.01042 8.15603 3.12838C8.1795 3.24634 8.23285 3.3563 8.31097 3.44776L9.49269 4.83127L9.34972 6.64472C9.34025 6.76469 9.36169 6.88509 9.412 6.99441C9.4623 7.10373 9.53979 7.19834 9.63706 7.26919C9.73446 7.33983 9.84834 7.38432 9.96783 7.39843C10.0873 7.41255 10.2084 7.39581 10.3196 7.34982ZM23.9657 5.54011C23.9286 5.42558 23.8627 5.3225 23.7743 5.2408C23.6859 5.1591 23.5779 5.10153 23.4608 5.07361L21.6922 4.64883L20.7421 3.09746C20.6792 2.9949 20.5911 2.91018 20.4861 2.85141C20.3811 2.79263 20.2628 2.76177 20.1425 2.76177C20.0222 2.76177 19.904 2.79263 19.799 2.85141C19.694 2.91018 19.6059 2.9949 19.543 3.09746L18.5929 4.64883L16.8243 5.07361C16.7072 5.10153 16.5992 5.1591 16.5108 5.2408C16.4224 5.3225 16.3565 5.42558 16.3194 5.54011C16.2823 5.6545 16.2751 5.77651 16.2985 5.89447C16.322 6.01243 16.3754 6.1224 16.4535 6.21385L17.6352 7.59736L17.4922 9.41082C17.4828 9.53079 17.5042 9.65118 17.5545 9.7605C17.6048 9.86983 17.6823 9.96443 17.7796 10.0353C17.877 10.1059 17.9908 10.1504 18.1103 10.1646C18.2298 10.1787 18.3509 10.1619 18.4621 10.1159L20.1425 9.41921L21.823 10.1159C21.9342 10.1619 22.0553 10.1786 22.1748 10.1645C22.2942 10.1503 22.4081 10.1059 22.5055 10.0353C22.6028 9.96443 22.6803 9.86982 22.7306 9.7605C22.7809 9.65118 22.8023 9.53079 22.7929 9.41082L22.6499 7.59736L23.8316 6.21385C23.9097 6.1224 23.9631 6.01243 23.9865 5.89447C24.01 5.77651 24.0028 5.6545 23.9657 5.54011ZM5.80705 10.1694C5.9533 10.1694 6.09814 10.1239 6.22048 10.0353C6.31775 9.96448 6.39524 9.86987 6.44554 9.76055C6.49584 9.65122 6.51729 9.53083 6.50783 9.41086L6.36486 7.59741L7.54658 6.2139C7.62469 6.12245 7.67804 6.01248 7.70151 5.89452C7.72498 5.77656 7.7178 5.65455 7.68064 5.54016C7.64358 5.42562 7.57768 5.32255 7.48926 5.24085C7.40085 5.15915 7.2929 5.10157 7.1758 5.07366L5.4072 4.64888L4.45705 3.09751C4.39417 2.99494 4.30604 2.91022 4.20107 2.85145C4.0961 2.79268 3.97782 2.76182 3.85751 2.76182C3.73721 2.76182 3.61893 2.79268 3.51396 2.85145C3.40899 2.91022 3.32086 2.99494 3.25798 3.09751L2.30783 4.64888L0.539234 5.07366C0.422131 5.10157 0.314181 5.15915 0.225766 5.24085C0.137351 5.32255 0.0714459 5.42562 0.0343897 5.54016C-0.00276895 5.65455 -0.00995592 5.77656 0.0135163 5.89452C0.0369885 6.01248 0.0903348 6.12245 0.168452 6.2139L1.35017 7.59741L1.2072 9.41086C1.19774 9.53083 1.21918 9.65123 1.26948 9.76055C1.31979 9.86987 1.39727 9.96448 1.49455 10.0353C1.59193 10.106 1.7058 10.1505 1.82529 10.1646C1.94477 10.1787 2.06588 10.162 2.17705 10.116L3.85751 9.41926L5.53798 10.116C5.6247 10.1516 5.71611 10.1694 5.80705 10.1694ZM20.2772 16.9134L19.4452 21.682C19.2361 22.8759 18.1997 23.7469 16.988 23.7469H12.1894C11.8573 23.7466 11.5285 23.6813 11.2214 23.5547C10.9172 23.4281 10.6374 23.2434 10.4007 23.0063C10.3861 22.9917 10.3711 22.9772 10.3561 22.9627V15.0417L10.388 15.0305C10.722 14.9106 11.0241 14.7161 11.2714 14.4616C11.5187 14.2072 11.7046 13.8996 11.8149 13.5623L12.2344 12.2198L12.7997 10.4109C12.9661 9.90235 13.5127 9.62532 14.0217 9.79172C14.9536 10.0955 15.5461 10.9617 15.5461 11.8913C15.5461 12.1191 15.5105 12.3506 15.4355 12.5784L14.8055 14.6456H18.3713C19.5732 14.6456 20.4844 15.7298 20.2772 16.9134ZM8.25087 24H4.99611C4.61 24 4.29701 23.687 4.29701 23.3009V14.8716C4.29701 14.4855 4.61 14.1725 4.99611 14.1725H8.25087C8.63698 14.1725 8.94997 14.4855 8.94997 14.8716V23.3009C8.94997 23.687 8.63698 24 8.25087 24Z" fill="#27D97F"/>
</g>
<defs>
<clipPath id="clip0_2981_4548">
<rect width="24" height="24" fill="white"/>
</clipPath>
</defs>
</svg>
