<svg width="24" height="25" viewBox="0 0 24 25" fill="none" xmlns="http://www.w3.org/2000/svg">
<path d="M23.7693 3.95298C24.1345 2.85714 24.0662 2.01249 23.5635 1.41867C22.9699 0.916302 22.1251 0.848049 21.029 1.21271C19.933 1.57802 18.9512 2.1944 18.0835 3.06196L15.3438 5.80188L3.95684 3.0793C3.77415 3.02214 3.60292 3.06778 3.4432 3.21616L1.25123 5.40801C1.12582 5.53372 1.0743 5.6878 1.09721 5.87043C1.13146 6.0533 1.22856 6.19011 1.38834 6.28151L10.0872 11.059L5.65208 15.4942L2.33009 14.5868C2.3073 14.5753 2.26178 14.5696 2.19323 14.5696C2.03333 14.5696 1.90216 14.6208 1.79936 14.7237L0.155581 16.3846C0.0414459 16.5213 -0.00983412 16.6641 0.00156143 16.8123C0.0242326 16.995 0.0984237 17.1263 0.224135 17.2064L4.53921 20.4425L7.77549 24.7575C7.87829 24.8833 8.01534 24.9571 8.18657 24.9804H8.22082C8.38071 24.9804 8.51188 24.9291 8.61468 24.8265L10.2584 23.1829C10.4068 23.0228 10.4525 22.8458 10.3955 22.6518L9.48788 19.3298L13.923 14.8944L18.7007 23.5938C18.7691 23.7422 18.8889 23.8335 19.0603 23.8678C19.0943 23.8792 19.1343 23.8848 19.1802 23.8848C19.3168 23.8848 19.4255 23.8505 19.5053 23.7821L21.6976 22.1384C21.8913 21.9786 21.9598 21.7904 21.903 21.5735L19.1633 9.65549L21.9203 6.89867C22.7876 6.03075 23.404 5.04881 23.7693 3.95298Z" fill="#27D97F"/>
</svg>
