<svg width="24" height="25" viewBox="0 0 24 25" fill="none" xmlns="http://www.w3.org/2000/svg">
<path d="M12 1.98145C9.82441 1.98145 7.69767 2.62658 5.88873 3.83528C4.07979 5.04397 2.66989 6.76194 1.83733 8.77193C1.00476 10.7819 0.786926 12.9936 1.21136 15.1274C1.6358 17.2612 2.68345 19.2212 4.22183 20.7596C5.7602 22.298 7.72022 23.3456 9.85401 23.7701C11.9878 24.1945 14.1995 23.9767 16.2095 23.1441C18.2195 22.3116 19.9375 20.9017 21.1462 19.0927C22.3549 17.2838 23 15.157 23 12.9814C22.9966 10.0651 21.8365 7.26923 19.7744 5.20707C17.7122 3.14492 14.9163 1.98489 12 1.98145ZM15.707 16.6884C15.5195 16.8759 15.2652 16.9812 15 16.9812C14.7348 16.9812 14.4805 16.8759 14.293 16.6884L11.293 13.6884C11.1055 13.501 11.0001 13.2466 11 12.9814V6.98145C11 6.71623 11.1054 6.46187 11.2929 6.27434C11.4804 6.0868 11.7348 5.98145 12 5.98145C12.2652 5.98145 12.5196 6.0868 12.7071 6.27434C12.8946 6.46187 13 6.71623 13 6.98145V12.5674L15.707 15.2744C15.8945 15.462 15.9998 15.7163 15.9998 15.9814C15.9998 16.2466 15.8945 16.5009 15.707 16.6884Z" fill="#27D97F"/>
</svg>
