<svg width="24" height="24" viewBox="0 0 24 24" fill="none" xmlns="http://www.w3.org/2000/svg">
<path d="M22.2141 0.856287C15.3572 2.99566 8.04187 5.92066 0.68437 8.63425C-0.233912 8.97363 -0.22688 10.2158 0.698432 10.4877C2.8364 11.1153 4.98281 11.7735 7.12968 12.4405C7.2689 12.4836 7.41984 12.4644 7.54265 12.3875C10.9748 10.2393 14.4337 8.03238 17.7905 5.9455C17.9644 5.83722 18.1537 6.08191 18.0028 6.22019C15.2756 8.72332 12.4402 11.3268 9.64687 13.8894C9.46781 14.0535 9.43546 14.3235 9.56953 14.5274C11.3691 17.2644 13.1625 20.015 14.8416 22.7169C15.2681 23.405 16.2773 23.2611 16.5811 22.4783C19.2066 15.6791 21.9712 8.94832 23.948 2.58457C24.2489 1.60863 23.1886 0.554412 22.2141 0.856287Z" fill="#27D97F"/>
<path d="M6.79688 14.5574C6.81375 16.46 6.84844 18.3627 6.90047 20.2653C6.92484 21.0782 7.88297 21.5296 8.45859 20.9882C9.06047 20.4238 9.66937 19.8542 10.2839 19.2814C10.5811 19.0044 10.6355 18.5455 10.41 18.1986C9.555 16.8833 8.69016 15.5675 7.82719 14.2583C7.51875 13.7905 6.79219 14.0024 6.79734 14.5574H6.79688Z" fill="#27D97F"/>
</svg>
