<svg width="24" height="25" viewBox="0 0 24 25" fill="none" xmlns="http://www.w3.org/2000/svg">
<g clip-path="url(#clip0_2741_2687)">
<path d="M15.7807 10.4878C17.3719 9.0371 19.5238 7.07505 19.7199 2.3877H21.1406V0.981445H2.85938V2.3877H4.28011C4.47623 7.07505 6.62808 9.0371 8.2193 10.4878C9.28669 11.461 9.89062 12.0566 9.89062 12.9814C9.89062 13.9062 9.28669 14.5019 8.2193 15.4751C6.62808 16.9258 4.47623 18.8878 4.28011 23.5752H2.85938V24.9814H21.1406V23.5752H19.7199C19.5238 18.8878 17.3719 16.9258 15.7807 15.4751C14.7133 14.5019 14.1094 13.9062 14.1094 12.9814C14.1094 12.0566 14.7133 11.461 15.7807 10.4878ZM11.2969 18.252C11.0775 18.2972 10.8628 18.363 10.6558 18.4486L6.34903 20.2308C7.05234 18.4425 8.18513 17.4092 9.16673 16.5143C10.2622 15.5155 11.2969 14.5721 11.2969 12.9814V18.252ZM14.8333 16.5143C15.8149 17.4092 16.9476 18.4425 17.651 20.2307L13.3442 18.4486C13.1372 18.363 12.9225 18.2971 12.7031 18.2519V12.9814C12.7031 14.5721 13.7378 15.5155 14.8333 16.5143ZM6.32433 5.66895C5.98434 4.78305 5.74955 3.71341 5.68809 2.3877H18.3119C18.2504 3.71341 18.0157 4.78305 17.6756 5.66895H6.32433Z" fill="#27D97F"/>
</g>
<defs>
<clipPath id="clip0_2741_2687">
<rect width="24" height="24" fill="white" transform="translate(0 0.981445)"/>
</clipPath>
</defs>
</svg>
