<svg width="20" height="21" viewBox="0 0 20 21" fill="none" xmlns="http://www.w3.org/2000/svg">
<path d="M17.5 5.01432C14.725 4.73932 11.9333 4.59766 9.15 4.59766C7.5 4.59766 5.85 4.68099 4.2 4.84766L2.5 5.01432" stroke="#FD3E3E" stroke-width="1.2" stroke-linecap="round" stroke-linejoin="round"/>
<path d="M7.08334 4.17324L7.26668 3.08158C7.40001 2.28991 7.50001 1.69824 8.90834 1.69824H11.0917C12.5 1.69824 12.6083 2.32324 12.7333 3.08991L12.9167 4.17324" stroke="#FD3E3E" stroke-width="1.2" stroke-linecap="round" stroke-linejoin="round"/>
<path d="M15.7083 7.64746L15.1667 16.0391C15.075 17.3475 15 18.3641 12.675 18.3641H7.32499C4.99999 18.3641 4.92499 17.3475 4.83332 16.0391L4.29166 7.64746" stroke="#FD3E3E" stroke-width="1.2" stroke-linecap="round" stroke-linejoin="round"/>
<path d="M8.60834 13.7812H11.3833" stroke="#FD3E3E" stroke-width="1.2" stroke-linecap="round" stroke-linejoin="round"/>
<path d="M7.91666 10.4482H12.0833" stroke="#FD3E3E" stroke-width="1.2" stroke-linecap="round" stroke-linejoin="round"/>
</svg>
