<svg width="20" height="20" viewBox="0 0 20 20" fill="none" xmlns="http://www.w3.org/2000/svg">
<path d="M10 12.5C11.3807 12.5 12.5 11.3807 12.5 10C12.5 8.61929 11.3807 7.5 10 7.5C8.61929 7.5 7.5 8.61929 7.5 10C7.5 11.3807 8.61929 12.5 10 12.5Z" stroke="white" stroke-width="1.2" stroke-miterlimit="10" stroke-linecap="round" stroke-linejoin="round"/>
<path d="M1.66666 10.7329V9.26621C1.66666 8.39954 2.37499 7.68287 3.24999 7.68287C4.75832 7.68287 5.37499 6.61621 4.61666 5.30787C4.18332 4.55787 4.44166 3.58287 5.19999 3.14954L6.64166 2.32454C7.29999 1.93287 8.14999 2.16621 8.54166 2.82454L8.63332 2.98287C9.38332 4.29121 10.6167 4.29121 11.375 2.98287L11.4667 2.82454C11.8583 2.16621 12.7083 1.93287 13.3667 2.32454L14.8083 3.14954C15.5667 3.58287 15.825 4.55787 15.3917 5.30787C14.6333 6.61621 15.25 7.68287 16.7583 7.68287C17.625 7.68287 18.3417 8.39121 18.3417 9.26621V10.7329C18.3417 11.5995 17.6333 12.3162 16.7583 12.3162C15.25 12.3162 14.6333 13.3829 15.3917 14.6912C15.825 15.4495 15.5667 16.4162 14.8083 16.8495L13.3667 17.6745C12.7083 18.0662 11.8583 17.8329 11.4667 17.1745L11.375 17.0162C10.625 15.7079 9.39166 15.7079 8.63332 17.0162L8.54166 17.1745C8.14999 17.8329 7.29999 18.0662 6.64166 17.6745L5.19999 16.8495C4.44166 16.4162 4.18332 15.4412 4.61666 14.6912C5.37499 13.3829 4.75832 12.3162 3.24999 12.3162C2.37499 12.3162 1.66666 11.5995 1.66666 10.7329Z" stroke="white" stroke-width="1.2" stroke-miterlimit="10" stroke-linecap="round" stroke-linejoin="round"/>
</svg>
