<svg width="38" height="39" viewBox="0 0 38 39" fill="none" xmlns="http://www.w3.org/2000/svg">
<rect y="0.5" width="38" height="38" rx="8" fill="#27D97F"/>
<path d="M19 25.0001C22.6819 25.0001 25.6666 22.0153 25.6666 18.3334C25.6666 14.6515 22.6819 11.6667 19 11.6667C15.3181 11.6667 12.3333 14.6515 12.3333 18.3334C12.3333 22.0153 15.3181 25.0001 19 25.0001ZM19 25.0001V28.3334M19 28.3334H14.8333M19 28.3334H23.1666M21.5 18.3334C21.5 19.7141 20.3807 20.8334 19 20.8334C17.6193 20.8334 16.5 19.7141 16.5 18.3334C16.5 16.9527 17.6193 15.8334 19 15.8334C20.3807 15.8334 21.5 16.9527 21.5 18.3334Z" stroke="white" stroke-width="1.5" stroke-linecap="round" stroke-linejoin="round"/>
</svg>
