<svg width="20" height="20" viewBox="0 0 20 20" fill="none" xmlns="http://www.w3.org/2000/svg">
<path d="M6.66666 1.66663V4.16663" stroke="#7A9085" stroke-width="1.5" stroke-miterlimit="10" stroke-linecap="round" stroke-linejoin="round"/>
<path d="M13.3333 1.66663V4.16663" stroke="#7A9085" stroke-width="1.5" stroke-miterlimit="10" stroke-linecap="round" stroke-linejoin="round"/>
<path d="M2.91667 7.57495H17.0833" stroke="#7A9085" stroke-width="1.5" stroke-miterlimit="10" stroke-linecap="round" stroke-linejoin="round"/>
<path d="M15 19.1667C16.8409 19.1667 18.3333 17.6743 18.3333 15.8333C18.3333 13.9924 16.8409 12.5 15 12.5C13.159 12.5 11.6667 13.9924 11.6667 15.8333C11.6667 17.6743 13.159 19.1667 15 19.1667Z" stroke="#7A9085" stroke-width="1.5" stroke-miterlimit="10" stroke-linecap="round" stroke-linejoin="round"/>
<path d="M16.2417 15.875H13.7583" stroke="#7A9085" stroke-width="1.5" stroke-miterlimit="10" stroke-linecap="round" stroke-linejoin="round"/>
<path d="M15 14.6583V17.15" stroke="#7A9085" stroke-width="1.5" stroke-miterlimit="10" stroke-linecap="round" stroke-linejoin="round"/>
<path d="M17.5 7.08329V13.6333C16.8917 12.9416 16 12.5 15 12.5C13.1583 12.5 11.6667 13.9916 11.6667 15.8333C11.6667 16.4583 11.8417 17.05 12.15 17.55C12.325 17.85 12.55 18.1166 12.8083 18.3333H6.66667C3.75 18.3333 2.5 16.6666 2.5 14.1666V7.08329C2.5 4.58329 3.75 2.91663 6.66667 2.91663H13.3333C16.25 2.91663 17.5 4.58329 17.5 7.08329Z" stroke="#7A9085" stroke-width="1.5" stroke-miterlimit="10" stroke-linecap="round" stroke-linejoin="round"/>
<path d="M9.99623 11.4167H10.0037" stroke="#7A9085" stroke-width="1.5" stroke-linecap="round" stroke-linejoin="round"/>
<path d="M6.91193 11.4167H6.91941" stroke="#7A9085" stroke-width="1.5" stroke-linecap="round" stroke-linejoin="round"/>
<path d="M6.91193 13.9167H6.91941" stroke="#7A9085" stroke-width="1.5" stroke-linecap="round" stroke-linejoin="round"/>
</svg>
