<svg width="89" height="88" viewBox="0 0 89 88" fill="none" xmlns="http://www.w3.org/2000/svg">
<path d="M33.5 44L40.8334 51.3333L57.3334 34.8333M34.2403 75.5365C35.4421 75.3776 36.6561 75.7035 37.6134 76.4409L42.0252 79.8264C43.4836 80.9467 45.5124 80.9467 46.9667 79.8264L51.5456 76.3106C52.401 75.6547 53.4806 75.3654 54.5479 75.508L60.2756 76.2617C62.0965 76.502 63.8523 75.4876 64.5571 73.7888L66.761 68.46C67.1724 67.4619 67.9627 66.6716 68.9608 66.2601L74.2892 64.0561C75.988 63.3554 77.0023 61.5954 76.762 59.7744L76.0369 54.2541C75.878 53.0523 76.2039 51.8383 76.9412 50.8809L80.3265 46.4688C81.4468 45.0103 81.4468 42.9815 80.3265 41.5271L76.8109 36.948C76.155 36.0924 75.8658 35.0128 76.0083 33.9454L76.762 28.2175C77.0023 26.3964 75.988 24.6405 74.2892 23.9357L68.9608 21.7317C67.9627 21.3202 67.1724 20.5299 66.761 19.5318L64.5571 14.203C63.8564 12.5042 62.0965 11.4898 60.2756 11.7301L54.5479 12.4838C53.4806 12.6305 52.401 12.3412 51.5496 11.6894L46.9708 8.17357C45.5124 7.05323 43.4836 7.05323 42.0293 8.17357L37.4504 11.6894C36.595 12.3412 35.5154 12.6305 34.4481 12.492L28.7204 11.7383C26.8995 11.4979 25.1437 12.5123 24.4389 14.2112L22.2391 19.5399C21.8236 20.534 21.0333 21.3243 20.0393 21.7399L14.7109 23.9398C13.0121 24.6446 11.9977 26.4005 12.2381 28.2215L12.9917 33.9495C13.1302 35.0169 12.841 36.0965 12.1892 36.948L8.67358 41.5271C7.5533 42.9856 7.5533 45.0144 8.67358 46.4688L12.1892 51.0479C12.8451 51.9035 13.1343 52.9831 12.9917 54.0504L12.2381 59.7784C11.9977 61.5995 13.0121 63.3554 14.7109 64.0602L20.0393 66.2642C21.0374 66.6756 21.8277 67.466 22.2391 68.4641L24.443 73.7929C25.1437 75.4917 26.9035 76.5061 28.7245 76.2658L34.2403 75.5365Z" stroke="#22BE6F" stroke-width="2" stroke-linecap="round" stroke-linejoin="round"/>
</svg>
