<svg width="10" height="10" viewBox="0 0 10 10" fill="none" xmlns="http://www.w3.org/2000/svg">
<path d="M5.91611 4.99997L9.80997 1.10605C10.0633 0.852764 10.0633 0.443223 9.80997 0.189966C9.55668 -0.0633218 9.14714 -0.0633218 8.89388 0.189966L4.99994 4.08385L1.10614 0.189966C0.852734 -0.0633218 0.443344 -0.0633218 0.190057 0.189966C-0.0633522 0.443253 -0.0633522 0.852764 0.190057 1.10605L4.08382 4.99997L0.190087 8.89385C-0.0633218 9.14714 -0.0633218 9.55668 0.190087 9.80994C0.250168 9.87019 0.321562 9.91797 0.400168 9.95055C0.478774 9.98312 0.563042 9.99984 0.64813 9.99975C0.813951 9.99975 0.979833 9.93628 1.10617 9.80994L4.99994 5.91605L8.89388 9.80994C8.95397 9.87018 9.02536 9.91796 9.10397 9.95053C9.18257 9.98311 9.26684 9.99983 9.35192 9.99975C9.51774 9.99975 9.68363 9.93628 9.80997 9.80994C10.0633 9.55665 10.0633 9.14714 9.80997 8.89385L5.91611 4.99997Z" fill="white"/>
</svg>
