<svg width="38" height="39" viewBox="0 0 38 39" fill="none" xmlns="http://www.w3.org/2000/svg">
<rect y="0.5" width="38" height="38" rx="8" fill="#27D97F"/>
<path d="M15.25 19.5H15.2583M19 19.5H19.0083M22.75 19.5H22.7583M19 27C23.1421 27 26.5 23.6421 26.5 19.5C26.5 15.3579 23.1421 12 19 12C14.8579 12 11.5 15.3579 11.5 19.5C11.5 20.4976 11.6948 21.4497 12.0484 22.3204C12.1161 22.4871 12.1499 22.5704 12.165 22.6377C12.1798 22.7036 12.1852 22.7524 12.1852 22.8199C12.1852 22.8889 12.1727 22.9641 12.1476 23.1145L11.6534 26.0794C11.6017 26.3898 11.5758 26.5451 11.624 26.6573C11.6661 26.7556 11.7444 26.8339 11.8427 26.876C11.9549 26.9242 12.1102 26.8983 12.4206 26.8466L15.3855 26.3524C15.5359 26.3273 15.6111 26.3148 15.6801 26.3148C15.7476 26.3148 15.7964 26.3202 15.8623 26.335C15.9296 26.3501 16.0129 26.3839 16.1796 26.4516C17.0503 26.8052 18.0024 27 19 27ZM15.6667 19.5C15.6667 19.7301 15.4801 19.9167 15.25 19.9167C15.0199 19.9167 14.8333 19.7301 14.8333 19.5C14.8333 19.2699 15.0199 19.0833 15.25 19.0833C15.4801 19.0833 15.6667 19.2699 15.6667 19.5ZM19.4167 19.5C19.4167 19.7301 19.2301 19.9167 19 19.9167C18.7699 19.9167 18.5833 19.7301 18.5833 19.5C18.5833 19.2699 18.7699 19.0833 19 19.0833C19.2301 19.0833 19.4167 19.2699 19.4167 19.5ZM23.1667 19.5C23.1667 19.7301 22.9801 19.9167 22.75 19.9167C22.5199 19.9167 22.3333 19.7301 22.3333 19.5C22.3333 19.2699 22.5199 19.0833 22.75 19.0833C22.9801 19.0833 23.1667 19.2699 23.1667 19.5Z" stroke="white" stroke-width="1.5" stroke-linecap="round" stroke-linejoin="round"/>
</svg>
