<svg width="32" height="32" viewBox="0 0 32 32" fill="none" xmlns="http://www.w3.org/2000/svg">
<g clip-path="url(#clip0_2784_3027)">
<path d="M26.6618 11.763C25.1828 5.87131 19.2078 2.29407 13.316 3.77304C8.7118 4.92885 5.3686 8.90823 5.02414 13.6428C1.75493 14.1819 -0.458262 17.2691 0.0808667 20.5383C0.560127 23.4447 3.07848 25.5732 6.02403 25.5615H11.0235V23.5617H6.02403C3.81515 23.5617 2.02447 21.771 2.02447 19.5621C2.02447 17.3532 3.81515 15.5626 6.02403 15.5626C6.57628 15.5626 7.02392 15.1149 7.02392 14.5627C7.01892 9.59265 11.0439 5.55959 16.0139 5.55466C20.3162 5.55034 24.0197 8.59189 24.852 12.8129C24.892 13.0184 24.9956 13.2062 25.1481 13.3497C25.3006 13.4932 25.4943 13.5852 25.7019 13.6128C28.4355 14.002 30.3358 16.5336 29.9466 19.2671C29.5971 21.7217 27.5013 23.5493 25.0219 23.5617H21.0224V25.5615H25.0219C28.8875 25.5498 32.0117 22.4066 31.9999 18.541C31.9902 15.3233 29.7877 12.5266 26.6618 11.763Z" fill="#171A12"/>
<path d="M15.313 15.8523L11.3135 19.8519L12.7233 21.2617L15.023 18.972V28.5609H17.0228V18.972L19.3126 21.2617L20.7224 19.8519L16.7229 15.8523C16.3328 15.4646 15.703 15.4646 15.313 15.8523Z" fill="#171A12"/>
</g>
<defs>
<clipPath id="clip0_2784_3027">
<rect width="32" height="32" fill="white"/>
</clipPath>
</defs>
</svg>
