<svg width="20" height="20" viewBox="0 0 20 20" fill="none" xmlns="http://www.w3.org/2000/svg">
<path d="M6.05 1.66669H13.9417C14.4833 1.66669 14.9667 1.68338 15.4 1.74171C17.7083 2.00004 18.3333 3.08336 18.3333 6.05003V11.3167C18.3333 14.2834 17.7083 15.3667 15.4 15.625C14.9667 15.6834 14.4917 15.7 13.9417 15.7H6.05C5.50833 15.7 5.025 15.6834 4.59166 15.625C2.28333 15.3667 1.65834 14.2834 1.65834 11.3167V6.05003C1.65834 3.08336 2.28333 2.00004 4.59166 1.74171C5.025 1.68338 5.50833 1.66669 6.05 1.66669Z" stroke="#7A9085" stroke-width="1.5" stroke-linecap="round" stroke-linejoin="round"/>
<path d="M11.3167 6.93335H14.3833" stroke="#7A9085" stroke-width="1.5" stroke-linecap="round" stroke-linejoin="round"/>
<path d="M5.61667 11.7584H5.63333H14.3917" stroke="#7A9085" stroke-width="1.5" stroke-linecap="round" stroke-linejoin="round"/>
<path d="M5.83333 18.3333H14.1667" stroke="#7A9085" stroke-width="1.5" stroke-linecap="round" stroke-linejoin="round"/>
<path d="M5.99559 6.91667H6.00307" stroke="#7A9085" stroke-width="1.5" stroke-linecap="round" stroke-linejoin="round"/>
<path d="M8.74542 6.91667H8.7529" stroke="#7A9085" stroke-width="1.5" stroke-linecap="round" stroke-linejoin="round"/>
</svg>
