<svg width="144" height="143" viewBox="0 0 144 143" fill="none" xmlns="http://www.w3.org/2000/svg">
<path fill-rule="evenodd" clip-rule="evenodd" d="M1.68306 2.03584C1.41523 2.73416 1.75027 6.31827 2.22068 7.78795C5.31198 17.4388 11.9114 23.6516 21.3246 25.7728C23.4975 26.2617 53.8719 26.5227 55.0718 26.0621C55.3435 25.9579 55.5656 25.6131 55.5656 25.2966C55.5656 24.979 55.7253 24.3275 55.9211 23.8473C56.1168 23.3672 56.4801 22.4818 56.7275 21.8809C59.7155 14.6231 67.3698 8.04605 74.6851 6.44878C75.1574 6.34554 75.5441 6.12348 75.5441 5.95499C75.5441 5.7865 76.0525 5.64917 76.6748 5.64917C77.6439 5.64917 77.7501 5.58197 77.417 5.18071C76.9777 4.65186 76.1684 4.55056 76.1684 5.02487C76.1684 5.19629 75.957 5.33654 75.6999 5.33654C75.3853 5.33654 75.2315 5.02293 75.2315 4.38207C75.2315 3.73927 75.1136 3.49968 74.8711 3.64967C74.6481 3.78797 74.5955 3.73537 74.7338 3.51234C74.8565 3.31365 75.1506 3.15198 75.3873 3.15198C76.035 3.15198 76.2687 2.56761 75.6288 2.55008C75.324 2.54132 74.0919 2.40497 72.8901 2.24621C68.2035 1.62679 1.91486 1.43199 1.68306 2.03584ZM139.069 1.79723C130.36 2.94259 125.089 3.59026 118.154 4.37039C116.609 4.54375 113.658 4.90411 111.599 5.17097C105.051 6.0183 101.477 6.45852 95.2879 7.17924C93.9575 7.33409 91.7447 7.61362 90.3714 7.80061C88.9982 7.98664 86.61 8.29051 85.0644 8.47458C79.8703 9.09499 76.6203 10.1313 72.5102 12.4785C69.9381 13.9472 65.4248 18.2247 64.4012 20.1648C64.1295 20.6791 63.8197 21.1709 63.7136 21.2566C63.5149 21.4173 61.2855 25.9121 60.8502 27.0321C60.1382 28.8602 59.6483 33.0667 59.774 36.2739C59.8295 37.7153 59.9006 40.3693 59.9308 42.1721C59.9727 44.6946 60.0545 45.2595 60.2873 44.6235C60.9164 42.9074 62.1212 43.3642 62.1212 45.3189C62.1212 45.8195 62.2614 46.2295 62.4328 46.2295C62.6043 46.2295 62.7455 46.4185 62.7455 46.6493C62.7455 46.8811 63.026 47.3242 63.3698 47.6349C63.9795 48.1862 63.9941 48.1803 63.9941 47.3496C63.9941 46.6425 64.0983 46.5334 64.6184 46.698C65.0615 46.8392 65.2427 46.7545 65.2427 46.4068C65.2427 46.138 65.3683 45.9179 65.5212 45.9179C65.9332 45.9179 66.1786 46.7467 66.1786 48.1404C66.1786 49.2975 66.2322 49.3695 67.026 49.2858C67.6347 49.2205 67.9054 49.353 67.9882 49.7542C68.1246 50.4185 70.537 52.7666 71.0951 52.7774C71.3172 52.7822 71.4857 53.1816 71.4857 53.7036C71.4857 54.5607 71.5743 54.6288 72.8092 54.7184C73.8299 54.7924 74.1601 54.9532 74.2487 55.4207C74.312 55.7547 74.7007 56.2923 75.1126 56.6167C75.5246 56.94 75.7866 57.3276 75.6941 57.4766C75.6025 57.6257 75.809 57.6929 76.1528 57.6266C76.9096 57.4805 77.0118 57.6237 77.1521 59.0281C77.2456 59.967 77.3926 60.1433 78.1971 60.2767C78.8711 60.3897 79.1613 60.6303 79.2334 61.1358C79.2879 61.5224 79.4554 61.838 79.6054 61.838C79.7544 61.838 80.0106 62.435 80.1742 63.1645C80.3378 63.894 80.4868 64.1754 80.5054 63.7888C80.5229 63.4031 80.6787 63.0866 80.8501 63.0866C81.0225 63.0866 81.1628 62.8908 81.1628 62.6522C81.1628 62.4126 81.3692 62.1379 81.6225 62.0405C82.088 61.8613 82.5214 62.9785 82.8136 65.1153C82.95 66.1068 82.9685 65.6831 83.3629 52.941C83.62 44.6478 83.8246 42.2997 84.3174 41.9958C84.4713 41.9004 84.5969 41.6169 84.5969 41.3657C84.5969 39.4606 89.0926 34.6094 92.2005 33.1621C95.2032 31.7626 95.6804 31.6603 102.702 30.9035C104.333 30.7273 106.651 30.4604 107.853 30.3094C109.055 30.1585 111.373 29.8955 113.003 29.7241C126.503 28.3051 135.653 21.9949 139.542 11.4237C139.668 11.0809 139.919 10.4303 140.098 9.97933C140.842 8.11228 141.439 4.98592 141.35 3.41982C141.245 1.60828 141.13 1.5255 139.069 1.79723ZM61.307 41.4173C61.643 42.2929 61.5086 43.108 61.0284 43.108C60.7012 43.108 60.56 42.7788 60.56 42.0153C60.56 40.8855 60.9749 40.5524 61.307 41.4173ZM68.0515 47.4781C68.0515 47.6505 67.8412 47.7908 67.584 47.7908C67.3259 47.7908 67.1156 47.6505 67.1156 47.4781C67.1156 47.3067 67.3259 47.1665 67.584 47.1665C67.8412 47.1665 68.0515 47.3067 68.0515 47.4781Z" fill="white"/>
<path fill-rule="evenodd" clip-rule="evenodd" d="M95.1321 1.82328C96.892 1.87879 99.771 1.87879 101.531 1.82328C103.291 1.76776 101.851 1.72198 98.3315 1.72198C94.8117 1.72198 93.3722 1.76776 95.1321 1.82328ZM110.424 1.78139C110.329 1.93528 111.069 2.01222 112.095 1.95281C113.545 1.87002 113.94 1.94405 113.94 2.29856C113.94 2.65113 113.203 2.79819 110.584 2.96863C106.379 3.24134 103.813 3.79454 107.54 3.6241C113.594 3.3475 121.588 2.47387 122.021 2.04144C122.098 1.96547 121.188 1.90022 120.001 1.89729C118.814 1.89535 116.211 1.80477 114.219 1.69763C112.2 1.58953 110.52 1.62653 110.424 1.78139ZM100.517 4.09744C99.8664 4.24061 100.435 4.26982 101.921 4.17048C103.295 4.07893 104.477 3.95232 104.549 3.88998C104.779 3.68838 101.647 3.85006 100.517 4.09744ZM59.1088 97.5805C59.3416 135.85 59.399 137.306 60.6584 136.925C61.0333 136.811 62.5342 136.577 63.9941 136.405C65.4531 136.232 67.0689 135.9 67.5841 135.669C68.0983 135.436 69.2651 134.959 70.1748 134.607C71.0844 134.256 72.2493 133.648 72.7635 133.255C81.5134 126.579 83.7194 121.579 83.5938 108.713L83.5285 101.951L83.3503 108.506C83.1204 116.971 82.09 121.355 80.5268 120.518C80.0515 120.264 80.0058 120.046 80.2483 119.2C80.7645 117.4 80.6593 116.884 79.9152 117.558C79.4837 117.948 79.3873 118.236 79.6006 118.493C79.7701 118.698 79.8042 118.969 79.6775 119.097C79.55 119.224 79.4457 119.898 79.4457 120.594C79.4457 121.447 79.2724 121.97 78.9149 122.196C78.2673 122.604 77.7822 122.219 78.2965 121.705C78.9023 121.098 78.7163 120.216 77.9176 119.912C77.1463 119.619 76.1684 118.032 76.1684 117.073C76.1684 116.747 75.7905 116.395 75.2315 116.2C74.428 115.921 74.2955 115.716 74.2955 114.766C74.2955 113.957 74.1601 113.656 73.7959 113.656C73.1979 113.656 71.4857 111.897 71.4857 111.282C71.4857 111.043 71.2403 110.848 70.9393 110.848C70.3968 110.848 68.6759 108.977 68.6759 108.387C68.6759 108.218 68.2931 108.035 67.8246 107.98C67.3201 107.922 66.8332 107.597 66.6267 107.181C66.4358 106.796 66.1826 106.577 66.0647 106.695C65.7044 107.056 64.6613 107.111 64.4558 106.779C64.3496 106.607 64.1324 106.548 63.9727 106.646C63.812 106.745 63.6815 106.388 63.6815 105.852C63.6815 105.243 63.5578 104.956 63.3484 105.085C63.1653 105.199 63.0416 105.101 63.0737 104.87C63.2919 103.276 63.0309 102.546 62.1212 102.202C61.381 101.923 61.1843 101.933 61.1843 102.252C61.1843 102.474 60.971 102.831 60.711 103.047C60.4509 103.263 60.262 103.737 60.2912 104.1C60.3204 104.463 60.299 105.533 60.2425 106.477C60.0545 109.643 59.4575 90.8418 59.365 78.8574C59.3143 72.3378 59.1945 66.9295 59.0971 66.8399C58.9997 66.7493 59.0056 80.5832 59.1088 97.5805Z" fill="white"/>
<path fill-rule="evenodd" clip-rule="evenodd" d="M58.687 1.86306C69.1209 1.99552 74.3422 2.17181 74.7629 2.40653C75.1067 2.5984 75.583 2.68508 75.8216 2.60034C76.0865 2.50587 76.1703 2.58281 76.0368 2.79903C75.917 2.99284 75.6249 3.1516 75.3872 3.1516C75.1505 3.1516 74.8564 3.31327 74.7337 3.51195C74.5954 3.73498 74.648 3.78758 74.871 3.64928C75.1135 3.4993 75.2314 3.73889 75.2314 4.38169C75.2314 5.02254 75.3853 5.33615 75.6999 5.33615C75.957 5.33615 76.1683 5.1959 76.1683 5.02449C76.1683 4.55018 76.9777 4.65147 77.4169 5.18032C77.7481 5.57964 77.6594 5.64879 76.8082 5.64879C76.2599 5.64879 75.58 5.87961 75.2976 6.16205C74.8213 6.63929 74.8623 6.66071 75.8664 6.46105C76.4615 6.34223 78.4941 6.12212 80.3826 5.97019C85.3867 5.56795 90.5389 5.1024 94.273 4.71283C96.0757 4.52485 98.9557 4.23267 100.673 4.06223C102.39 3.89277 104.637 3.62103 105.667 3.45936C106.698 3.29671 108.98 3.06978 110.74 2.95486C115.421 2.64806 115.306 1.88157 110.584 1.91566C108.738 1.92832 92.8296 1.87865 75.2314 1.80365C57.6332 1.72866 50.1883 1.75593 58.687 1.86306ZM132.907 2.43575C133.295 2.50977 133.857 2.50781 134.156 2.42893C134.454 2.35101 134.137 2.28965 133.45 2.29355C132.763 2.29647 132.519 2.36075 132.907 2.43575ZM128.536 3.06004C128.925 3.13406 129.487 3.13211 129.786 3.05322C130.084 2.97531 129.766 2.91395 129.08 2.91784C128.393 2.92077 128.149 2.98505 128.536 3.06004ZM123.695 3.6785C123.995 3.75739 124.487 3.75739 124.788 3.6785C125.088 3.59961 124.842 3.53533 124.241 3.53533C123.64 3.53533 123.394 3.59961 123.695 3.6785ZM113.94 4.70796C113.62 4.91151 113.87 4.9456 114.72 4.81509C116.263 4.57842 116.526 4.39824 115.318 4.40506C114.817 4.40701 114.197 4.54336 113.94 4.70796ZM110.272 5.23973C110.572 5.31765 111.064 5.31765 111.365 5.23973C111.665 5.16084 111.419 5.09656 110.818 5.09656C110.217 5.09656 109.971 5.16084 110.272 5.23973ZM72.7342 6.95582C72.3047 7.136 71.6025 7.42624 71.1739 7.5996C69.1822 8.40603 64.93 11.0279 64.93 11.4506C64.93 11.5197 65.8786 10.9724 67.0376 10.2351C69.5182 8.6573 71.472 7.71744 73.2903 7.22755C74.0149 7.03276 74.6071 6.80875 74.6071 6.72889C74.6071 6.48346 73.5533 6.61104 72.7342 6.95582ZM63.0571 12.9076C62.2847 13.604 61.8776 14.0461 62.1523 13.8913C62.9207 13.4579 64.7108 11.8801 64.5794 11.7535C64.5151 11.6921 63.8294 12.2112 63.0571 12.9076ZM70.0549 13.9429L68.8326 15.0581L70.1591 14.0471C71.3716 13.1228 71.6667 12.8287 71.3814 12.8287C71.3239 12.8287 70.7269 13.3303 70.0549 13.9429ZM67.2411 16.3398C66.5516 17.0693 65.7939 17.9478 65.5562 18.2906C65.1199 18.9217 66.6334 17.4374 68.0281 15.8655C69.2309 14.5107 68.6212 14.8779 67.2411 16.3398ZM63.733 20.629C59.5879 26.236 59.1555 29.0089 59.1555 49.9759C59.1555 77.3554 59.845 113.174 60.2424 106.476C60.2989 105.533 60.3203 104.463 60.2911 104.1C60.2619 103.737 60.4508 103.263 60.7108 103.047C60.9709 102.831 61.1842 102.473 61.1842 102.251C61.1842 101.933 61.3809 101.923 62.1211 102.202C63.0308 102.546 63.2918 103.276 63.0736 104.869C63.0415 105.101 63.1652 105.199 63.3483 105.085C63.5577 104.956 63.6814 105.242 63.6814 105.852C63.6814 106.388 63.8119 106.745 63.9726 106.646C64.1323 106.547 64.3495 106.607 64.4557 106.779C64.6612 107.11 65.7043 107.056 66.0646 106.695C66.1825 106.577 66.4357 106.796 66.6266 107.181C66.833 107.596 67.32 107.922 67.8245 107.98C68.293 108.035 68.6758 108.218 68.6758 108.387C68.6758 108.976 70.3967 110.847 70.9392 110.847C71.2402 110.847 71.4856 111.043 71.4856 111.282C71.4856 111.897 73.1978 113.656 73.7958 113.656C74.16 113.656 74.2954 113.957 74.2954 114.766C74.2954 115.716 74.4279 115.921 75.2314 116.2C75.7904 116.395 76.1683 116.747 76.1683 117.073C76.1683 118.032 77.1461 119.619 77.9175 119.912C78.7161 120.216 78.9022 121.098 78.2964 121.705C77.7821 122.219 78.2672 122.604 78.9148 122.196C79.2723 121.97 79.4456 121.447 79.4456 120.594C79.4456 119.898 79.5499 119.224 79.6774 119.097C79.8041 118.969 79.77 118.697 79.6005 118.493C79.3872 118.236 79.4836 117.947 79.9151 117.558C80.6592 116.884 80.7644 117.4 80.2482 119.2C80.0057 120.045 80.0514 120.264 80.5267 120.518C81.4451 121.01 81.6 120.68 83.0307 115.218C83.6239 112.951 84.2696 43.8518 83.6901 44.6689C83.4846 44.9582 83.3424 47.5781 83.3171 51.5362C83.2791 57.5435 82.8944 67.1719 82.7746 65.1149C82.6382 62.7784 81.1627 60.5228 81.1627 62.6518C81.1627 62.8904 81.0224 63.0862 80.8501 63.0862C80.6786 63.0862 80.5228 63.4027 80.5053 63.7884C80.4868 64.175 80.3378 63.8936 80.1741 63.1641C80.0105 62.4346 79.7544 61.8376 79.6054 61.8376C79.4554 61.8376 79.2879 61.522 79.2333 61.1354C79.1612 60.6299 78.871 60.3893 78.197 60.2763C77.3926 60.1429 77.2455 59.9666 77.152 59.0278C77.0117 57.6233 76.9095 57.4802 76.1527 57.6263C75.8089 57.6925 75.6025 57.6253 75.694 57.4763C75.7865 57.3272 75.5245 56.9396 75.1126 56.6163C74.7006 56.2919 74.312 55.7543 74.2487 55.4203C74.16 54.9528 73.8299 54.7921 72.8092 54.718C71.5742 54.6284 71.4856 54.5603 71.4856 53.7032C71.4856 53.1812 71.3171 52.7818 71.095 52.777C70.537 52.7663 68.1245 50.4181 67.9882 49.7539C67.9054 49.3526 67.6346 49.2201 67.0259 49.2854C66.2321 49.3692 66.1786 49.2971 66.1786 48.14C66.1786 46.7463 65.9331 45.9175 65.5212 45.9175C65.3682 45.9175 65.2426 46.1376 65.2426 46.4064C65.2426 46.7541 65.0614 46.8388 64.6183 46.6976C64.0982 46.533 63.994 46.6421 63.994 47.3492C63.994 48.18 63.9794 48.1858 63.3697 47.6346C63.0259 47.3239 62.7454 46.8807 62.7454 46.6489C62.7454 46.4181 62.6042 46.2292 62.4328 46.2292C62.2614 46.2292 62.1211 45.8191 62.1211 45.3185C62.1211 43.3638 60.9163 42.907 60.2872 44.6231C60.0544 45.2591 59.9726 44.6942 59.9307 42.1717C59.9005 40.3689 59.8294 37.7149 59.7739 36.2735C59.6483 33.0663 60.1382 28.8598 60.8501 27.0317C61.2796 25.9273 63.5129 21.4179 63.7096 21.2562C63.958 21.0527 64.6729 19.696 64.5316 19.696C64.4722 19.696 64.1128 20.1158 63.733 20.629ZM119.559 28.7488C118.916 28.9543 118.888 29.003 119.403 29.0244C119.746 29.039 120.237 28.9153 120.495 28.7488C121.042 28.3953 120.662 28.3953 119.559 28.7488ZM115.969 29.3731C115.105 29.5922 115.093 29.6137 115.813 29.6429C116.242 29.6614 116.803 29.5396 117.061 29.3731C117.592 29.0293 117.318 29.0293 115.969 29.3731ZM110.35 30.0052C109.933 30.1902 110.192 30.2204 111.13 30.0958C111.902 29.9935 112.594 29.8591 112.665 29.7977C112.936 29.563 110.946 29.7413 110.35 30.0052ZM105.355 30.6188C104.967 30.7834 105.379 30.8175 106.447 30.7084C107.392 30.6129 108.223 30.4834 108.295 30.422C108.564 30.1893 105.953 30.3646 105.355 30.6188ZM101.063 31.1535C101.449 31.2285 102.081 31.2285 102.468 31.1535C102.854 31.0795 102.538 31.0191 101.766 31.0191C100.993 31.0191 100.677 31.0795 101.063 31.1535ZM96.6961 31.7787C97.0847 31.8537 97.6467 31.8508 97.9447 31.7729C98.2437 31.694 97.9253 31.6336 97.2386 31.6365C96.552 31.6404 96.3075 31.7037 96.6961 31.7787ZM88.1556 36.0066C87.0171 37.2114 85.5825 39.0142 86.3548 38.2691C87.1856 37.4676 89.6613 34.6791 89.5425 34.6791C89.4695 34.6791 88.8452 35.2762 88.1556 36.0066ZM84.9251 40.5335C84.704 41.0049 84.3991 41.6351 84.2482 41.9331C84.0962 42.2311 83.9832 42.7931 83.9969 43.1817C84.0115 43.6151 84.0806 43.7066 84.1761 43.4203C84.3251 42.9655 84.4322 42.6908 85.1939 40.8043C85.6652 39.6365 85.4461 39.4164 84.9251 40.5335ZM60.5599 42.0149C60.5599 42.7785 60.7011 43.1077 61.0284 43.1077C61.5085 43.1077 61.6429 42.2925 61.3069 41.4169C60.9748 40.552 60.5599 40.8851 60.5599 42.0149ZM67.1155 47.4778C67.1155 47.6501 67.3259 47.7904 67.584 47.7904C67.8411 47.7904 68.0515 47.6501 68.0515 47.4778C68.0515 47.3063 67.8411 47.1661 67.584 47.1661C67.3259 47.1661 67.1155 47.3063 67.1155 47.4778Z" fill="white"/>
<path fill-rule="evenodd" clip-rule="evenodd" d="M0.39059 0.495868C-0.0807992 1.03349 -0.147996 5.83211 0.31268 6.1165C0.484094 6.22266 0.625315 6.76515 0.625315 7.32127C0.625315 7.87837 0.787966 8.49683 0.987624 8.69551C1.18631 8.89517 1.39181 9.44836 1.44245 9.92462C1.4931 10.4009 1.68107 10.8392 1.86027 10.8986C2.03948 10.959 2.18557 11.3466 2.18557 11.7615C2.18557 12.1764 2.32582 12.5163 2.49821 12.5163C2.66962 12.5163 2.80988 12.7968 2.80988 13.1406C2.80988 13.4844 2.92188 13.7649 3.0592 13.7649C3.19653 13.7649 3.48677 14.2567 3.70396 14.8577C3.92115 15.4586 4.30098 15.9504 4.54739 15.9504C4.7938 15.9504 4.9954 16.2036 4.9954 16.5134C4.9954 17.1445 6.91602 19.3836 7.45656 19.3836C7.64843 19.3836 7.80425 19.5384 7.80425 19.7264C7.80425 20.0994 9.06746 21.3539 10.4446 22.3492C10.9189 22.693 11.4926 23.1488 11.7185 23.3641C11.9455 23.5784 12.2805 23.7537 12.4646 23.7537C12.6487 23.7537 12.7996 23.8949 12.7996 24.0663C12.7996 24.2377 13.0801 24.378 13.4239 24.378C13.7667 24.378 14.0482 24.5192 14.0482 24.6906C14.0482 24.862 14.2635 25.0032 14.5274 25.0032C14.7904 25.0032 15.3465 25.2253 15.7624 25.498C16.1773 25.7707 16.6652 25.9022 16.8454 25.7902C17.0265 25.6791 17.2583 25.8067 17.3616 26.0755C17.5943 26.6823 19.7896 26.7787 19.5909 26.1729C19.5198 25.9587 19.0173 25.7395 18.4719 25.685C17.9274 25.6314 17.4814 25.4561 17.4814 25.2954C17.4814 25.1347 17.0606 25.0032 16.5454 25.0032C16.0302 25.0032 15.6085 24.862 15.6085 24.6906C15.6085 24.5192 15.328 24.378 14.9842 24.378C14.6414 24.378 14.3599 24.2601 14.3599 24.115C14.3599 23.9708 13.868 23.5881 13.2671 23.2638C12.6662 22.9404 12.1753 22.5674 12.1753 22.4349C12.1753 22.3015 11.964 22.1934 11.7069 22.1934C11.4488 22.1934 11.2384 22.0532 11.2384 21.8808C11.2384 21.7094 11.0563 21.5691 10.8342 21.5691C10.6121 21.5691 9.52326 20.6458 8.41492 19.517C5.66547 16.7169 5.6197 16.6643 5.6197 16.2845C5.6197 16.1004 5.47945 15.9504 5.30707 15.9504C5.13565 15.9504 4.9954 15.7245 4.9954 15.4488C4.9954 15.1489 4.82107 15.0135 4.562 15.1128C4.26008 15.2287 4.17632 15.1002 4.28345 14.6892C4.36819 14.3648 4.21235 13.874 3.93575 13.5974C3.66012 13.3217 3.43417 12.8952 3.43417 12.6497C3.43417 12.4053 3.29393 12.2037 3.12251 12.2037C2.95012 12.2037 2.80988 11.853 2.80988 11.4235C2.80988 10.995 2.66962 10.6434 2.49821 10.6434C2.32582 10.6434 2.18557 10.2217 2.18557 9.70646C2.18557 9.19222 2.04533 8.7705 1.87392 8.7705C1.70153 8.7705 1.56127 8.1501 1.56127 7.3914C1.56127 6.56646 1.40447 5.96068 1.1717 5.88276C0.740238 5.73959 0.646746 1.46397 1.06554 1.04615C1.59537 0.517297 87.4758 0.899086 88.3417 1.43378C88.4702 1.51364 94.6684 1.61298 102.116 1.65584C114.726 1.72694 126.21 2.00062 122.993 2.15255C122.219 2.18859 120.745 2.3639 119.714 2.54213C118.685 2.71939 116.156 3.00086 114.096 3.1674C106.455 3.78391 103.758 4.05077 102.348 4.33126C101.553 4.48904 99.7329 4.64877 98.3032 4.68675C96.8744 4.72474 95.5586 4.85135 95.3794 4.96822C95.2002 5.0851 93.5084 5.27891 91.62 5.39871C89.7315 5.5185 86.7113 5.75614 84.9085 5.92756C83.1057 6.098 81.3069 6.24604 80.9105 6.25578C79.8382 6.28207 80.4196 6.89761 81.5153 6.89761C82.3344 6.89761 82.3977 6.95604 82.0061 7.3466C81.5464 7.80727 80.2258 7.67871 80.2258 7.17323C80.2258 7.0213 79.1028 6.89761 77.7286 6.89761C76.2725 6.89761 75.2314 7.02714 75.2314 7.20927C75.2314 7.38166 74.7396 7.52191 74.1386 7.52191C73.5377 7.52191 73.0468 7.66215 73.0468 7.83357C73.0468 8.00596 72.7099 8.1462 72.2998 8.1462C71.8888 8.1462 71.4681 8.36534 71.3648 8.63415C71.2626 8.90296 71.0395 9.03639 70.871 8.93218C70.4932 8.6994 67.0473 10.471 67.3298 10.7535C67.4408 10.8645 67.2879 10.9551 66.9889 10.9551C66.6909 10.9551 66.2643 11.1313 66.0422 11.3456C65.2066 12.1511 63.9833 13.1406 63.8207 13.1406C63.5772 13.1406 62.1211 14.6346 62.1211 14.8859C62.1211 15.0028 61.8007 15.3953 61.4092 15.7586C60.6466 16.4647 58.5409 19.3953 58.5351 19.7585C58.5321 19.8783 58.3549 20.153 58.1406 20.3673C57.5981 20.9097 57.6527 21.5691 58.2419 21.5691C58.5419 21.5691 58.6909 21.3568 58.6256 21.0227C58.5672 20.7218 58.838 20.1793 59.2275 19.816C59.6171 19.4537 59.9356 19.0057 59.9356 18.8206C59.9356 18.3259 66.3373 11.8939 66.8409 11.8823C67.4204 11.8686 68.3641 11.1284 68.3641 10.6872C68.3641 10.4915 68.7147 10.3308 69.1442 10.3308C69.5738 10.3308 69.9244 10.1905 69.9244 10.0191C69.9244 9.84768 70.1942 9.70646 70.5234 9.70646C70.8525 9.70646 71.1681 9.57498 71.2256 9.41428C71.283 9.25261 71.7106 9.07048 72.1761 9.00912C72.6417 8.94776 73.1218 8.79874 73.2426 8.67797C73.3634 8.55721 73.7948 8.45787 74.201 8.45787C74.6071 8.45787 75.0201 8.24749 75.1184 7.99037C75.2558 7.63196 75.8421 7.52191 77.5961 7.52191C79.5109 7.52191 79.8644 7.59982 79.7145 7.99037C79.5031 8.54065 82.2311 8.68966 82.5671 8.1462C82.6733 7.97479 83.8722 7.83357 85.2319 7.83357C87.5236 7.83357 87.7407 7.77708 88.215 7.05344C88.6855 6.33467 89.8708 5.87984 89.4354 6.58497C89.3224 6.7671 89.6721 6.91027 90.2749 6.92877C92.1975 6.98818 93.4929 6.84307 93.5971 6.5577C93.6545 6.4009 95.0239 6.2733 96.6406 6.2733C98.3918 6.2733 99.58 6.14669 99.58 5.96067C99.58 5.77562 100.756 5.64901 102.483 5.64901C104.08 5.64901 105.52 5.5185 105.683 5.35878C105.846 5.19905 107.174 5.00133 108.633 4.91952C110.092 4.83771 112.972 4.54748 115.033 4.2738C117.092 4.00012 120.043 3.6349 121.587 3.46251C125.685 3.00475 128.788 2.60251 131.264 2.20709C132.466 2.0162 134.746 1.75518 136.33 1.62759C139.411 1.38021 139.719 1.26821 139.424 0.498795C139.229 -0.00960354 125.193 -0.00473864 117.452 0.507556C115.505 0.636117 114.564 0.590344 114.564 0.367311C114.564 -0.200499 0.890223 -0.0729157 0.39059 0.495868ZM140.006 0.341987C139.897 0.517297 140.142 0.654623 140.563 0.654623C141.976 0.654623 143.181 3.84819 142.034 4.55625C141.863 4.66241 141.722 5.50487 141.722 6.42914C141.722 7.35341 141.594 8.18808 141.437 8.28548C141.28 8.3819 141.057 9.02275 140.941 9.70841C140.826 10.3941 140.603 10.9551 140.446 10.9551C140.289 10.9551 140.161 11.3067 140.161 11.7362C140.161 12.1647 140.021 12.5163 139.849 12.5163C139.677 12.5163 139.537 12.789 139.537 13.1221C139.537 13.4552 139.397 13.8146 139.224 13.9207C139.053 14.0269 138.913 14.322 138.913 14.5772C138.913 15.0106 138.709 15.3281 137.742 16.4072C137.528 16.6458 137.352 17.0023 137.352 17.199C137.352 17.3948 137.176 17.7366 136.962 17.9577C136.747 18.1798 136.15 18.8985 135.634 19.556C135.12 20.2143 134.222 21.1815 133.641 21.7064C133.059 22.2324 132.193 23.0476 131.714 23.5199C131.236 23.9923 130.693 24.378 130.509 24.378C130.324 24.378 130.172 24.5026 130.172 24.6546C130.172 24.8055 129.926 25.011 129.626 25.1094C129.325 25.2078 128.518 25.648 127.831 26.0872C127.144 26.5265 126.336 26.9696 126.036 27.0729C125.735 27.1761 125.49 27.3845 125.49 27.5365C125.49 27.6884 125.138 27.8121 124.709 27.8121C124.28 27.8121 123.929 27.9523 123.929 28.1247C123.929 28.2961 123.516 28.4364 123.011 28.4364C122.506 28.4364 122.006 28.5766 121.9 28.749C121.794 28.9204 121.304 29.0607 120.811 29.0607C120.318 29.0607 119.726 29.2506 119.494 29.4824C119.235 29.7405 118.235 29.9265 116.9 29.9626C115.704 29.9957 114.591 30.1573 114.427 30.3219C114.261 30.4865 112.821 30.6219 111.224 30.6219C109.497 30.6219 108.321 30.7485 108.321 30.9336C108.321 31.1186 107.176 31.2462 105.511 31.2462C103.966 31.2462 102.701 31.367 102.701 31.515C102.701 31.6631 101.472 31.8627 99.9706 31.9591C97.1023 32.1432 93.9613 32.788 93.9613 33.1931C93.9613 33.3236 93.6097 33.4308 93.1812 33.4308C92.7517 33.4308 92.4001 33.572 92.4001 33.7434C92.4001 33.9148 92.1907 34.0551 91.9345 34.0551C91.2917 34.0551 89.001 36.0526 87.244 38.1437C86.5301 38.993 84.9085 42.2946 84.9085 42.8985C84.9085 43.1167 84.7858 43.4293 84.6358 43.5919C84.4858 43.7556 84.2706 59.4809 84.1576 78.538C84.0446 97.5962 83.882 113.727 83.7963 114.385C82.8233 121.818 80.4615 126.637 75.7914 130.714C72.6904 133.422 71.993 133.906 70.1747 134.607C69.265 134.959 68.0982 135.436 67.584 135.669C67.0688 135.9 65.453 136.233 63.994 136.405C62.5341 136.577 61.0332 136.811 60.6583 136.925C59.3678 137.315 59.3795 137.693 58.9704 80.5677C58.6071 29.7833 58.6159 29.2857 59.995 27.6718C60.1343 27.5082 60.2482 26.9823 60.2482 26.5012C60.2482 26.02 60.3885 25.6275 60.5599 25.6275C60.7313 25.6275 60.8725 25.4142 60.8725 25.1542C60.8725 24.8951 60.9972 24.4383 61.1501 24.1403C61.3021 23.8423 61.6858 23.0709 62.0013 22.4272C62.3169 21.7834 62.6831 21.2565 62.8165 21.2565C62.949 21.2565 63.0571 21.0461 63.0571 20.789C63.0571 20.5309 63.1973 20.3205 63.3697 20.3205C63.5411 20.3205 63.6814 20.1433 63.6814 19.927C63.6814 19.7108 64.3593 18.8051 65.1871 17.9129C66.0159 17.0218 66.9616 15.9348 67.2908 15.4966C67.619 15.0593 68.0135 14.7018 68.1674 14.7018C68.3213 14.7018 68.6738 14.4486 68.9514 14.1389C69.8231 13.1688 71.6785 11.892 72.217 11.892C72.5014 11.892 72.7342 11.7517 72.7342 11.5794C72.7342 11.4079 72.9446 11.2677 73.2027 11.2677C73.4598 11.2677 73.6711 11.1274 73.6711 10.9551C73.6711 10.7836 73.9341 10.6434 74.2565 10.6434C74.5788 10.6434 75.0162 10.434 75.2285 10.1788C75.4408 9.92268 75.7135 9.77561 75.8352 9.85061C75.957 9.9256 76.4488 9.78341 76.928 9.53505C77.4082 9.28572 78.1357 9.08216 78.5448 9.08216C78.9548 9.08216 79.2898 8.94192 79.2898 8.7705C79.2898 8.59909 78.7279 8.45787 78.0412 8.45787C77.3546 8.45787 76.7926 8.59909 76.7926 8.7705C76.7926 8.94192 76.5112 9.08216 76.1683 9.08216C75.8245 9.08216 75.544 9.22338 75.544 9.3948C75.544 9.56621 75.1321 9.70646 74.6295 9.70646C74.0266 9.70646 73.5075 9.97235 73.1023 10.4876C72.7644 10.9161 72.2609 11.2677 71.9823 11.2677C71.471 11.2677 70.4016 11.7897 69.7461 12.3605C69.5484 12.5319 68.8569 13.0938 68.2093 13.6091C66.76 14.7612 64.3096 17.2672 64.3076 17.5993C64.3067 17.7337 63.8772 18.2626 63.3542 18.7749C62.8302 19.2862 62.4718 19.818 62.5565 19.9563C62.6422 20.0936 62.4386 20.4033 62.1036 20.6448C61.7695 20.8854 61.4968 21.3237 61.4968 21.6198C61.4968 21.9149 61.3556 22.2431 61.1842 22.3492C61.0128 22.4554 60.8725 22.8148 60.8725 23.1479C60.8725 23.4819 60.6612 23.7537 60.4041 23.7537C60.1129 23.7537 59.9356 24.0488 59.9356 24.5348C59.9356 24.9633 59.7954 25.3149 59.6239 25.3149C59.4516 25.3149 59.3113 25.7366 59.3113 26.2518C59.3113 26.7661 59.1711 27.1878 58.9996 27.1878C58.8273 27.1878 58.687 27.8121 58.687 28.5737C58.687 29.3363 58.5468 30.0473 58.3744 30.1535C57.8231 30.4943 57.9556 142.001 58.5088 142.553C59.022 143.067 61.978 143.172 62.277 142.688C62.3831 142.516 63.1642 142.375 64.0125 142.375C64.8608 142.375 65.5543 142.235 65.5543 142.064C65.5543 141.892 66.1085 141.751 66.7844 141.751C67.4613 141.751 68.1021 141.611 68.2083 141.439C68.3144 141.268 68.6777 141.127 69.0167 141.127C69.3556 141.127 69.713 140.916 69.8124 140.659C69.9107 140.401 70.2575 140.191 70.5828 140.191C70.9071 140.191 71.174 140.05 71.174 139.878C71.174 139.707 71.4544 139.566 71.7982 139.566C72.1411 139.566 72.4225 139.442 72.4225 139.29C72.4225 139.138 72.8783 138.795 73.4364 138.528C73.9945 138.262 74.6577 137.755 74.91 137.4C75.1632 137.047 75.4837 136.757 75.6229 136.757C75.9921 136.757 78.0412 134.65 78.0412 134.27C78.0412 134.093 78.1883 133.947 78.3675 133.947C78.9071 133.947 80.2258 132.456 80.2258 131.845C80.2258 131.532 80.5141 131.069 80.8657 130.816C81.5465 130.328 82.4113 128.821 82.4113 128.124C82.4113 127.893 82.5516 127.704 82.723 127.704C82.8954 127.704 83.0356 127.431 83.0356 127.098C83.0356 126.765 83.1759 126.405 83.3483 126.299C83.5197 126.193 83.6599 125.708 83.6599 125.222C83.6599 124.723 83.8644 124.259 84.1284 124.158C84.3991 124.053 84.5968 123.587 84.5968 123.05C84.5968 122.54 84.7371 122.035 84.9085 121.929C85.114 121.802 85.2212 108.509 85.2212 83.0649C85.2212 57.6206 85.3273 44.3273 85.5328 44.2006C85.7042 44.0945 85.8454 43.5247 85.8454 42.9336C85.8454 42.3433 85.9857 41.8593 86.1571 41.8593C86.3285 41.8593 86.4697 41.5729 86.4697 41.2223C86.4697 40.8717 86.6129 40.4149 86.7873 40.2075C88.2579 38.4651 88.6543 37.9041 88.6543 37.5574C88.6543 37.3373 88.8939 37.0655 89.187 36.9535C89.6828 36.7626 90.4162 36.2289 91.2645 35.4429C91.4602 35.2618 91.8664 35.0202 92.1663 34.9063C92.4663 34.7923 92.7127 34.5547 92.7127 34.3774C92.7127 34.2002 93.0633 34.0551 93.4929 34.0551C93.9224 34.0551 94.273 33.9148 94.273 33.7434C94.273 33.572 94.8272 33.4308 95.5041 33.4308C96.18 33.4308 96.8208 33.2905 96.927 33.1191C97.0331 32.9477 98.3674 32.8065 99.8926 32.8065C101.417 32.8065 102.739 32.6857 102.831 32.5386C102.922 32.3906 104.276 32.1968 105.84 32.1082C107.403 32.0186 108.839 31.7887 109.032 31.5959C109.235 31.3933 110.476 31.2462 111.973 31.2462C113.492 31.2462 114.564 31.1167 114.564 30.9336C114.564 30.7554 115.494 30.6219 116.73 30.6219C117.922 30.6219 118.984 30.4817 119.09 30.3093C119.196 30.1379 119.907 29.9976 120.67 29.9976C121.432 29.9976 122.056 29.8564 122.056 29.685C122.056 29.5136 122.481 29.3733 123.002 29.3733C123.554 29.3733 124.023 29.1785 124.127 28.9068C124.226 28.6497 124.412 28.5055 124.54 28.5844C124.668 28.6633 125.04 28.527 125.365 28.2806C125.691 28.0341 126.204 27.8277 126.504 27.8218C126.805 27.817 127.05 27.6718 127.05 27.5004C127.05 27.328 127.332 27.1878 127.674 27.1878C128.018 27.1878 128.299 27.0475 128.299 26.8761C128.299 26.7037 128.494 26.5635 128.734 26.5635C128.973 26.5635 129.249 26.3531 129.349 26.095C129.447 25.8379 129.743 25.6275 130.006 25.6275C130.269 25.6275 130.484 25.5029 130.484 25.3509C130.484 25.198 130.947 24.8542 131.512 24.5864C132.078 24.3176 132.979 23.6348 133.515 23.068C134.052 22.5012 134.82 21.7376 135.224 21.3724C135.628 21.0062 136.166 20.3039 136.42 19.8111C136.676 19.3183 137.2 18.6599 137.586 18.3463C137.972 18.0337 138.288 17.5068 138.288 17.1756C138.288 16.8455 138.406 16.5747 138.551 16.5747C138.868 16.5747 140.164 14.1223 140.286 13.2935C140.333 12.9711 140.535 12.6517 140.735 12.5854C140.935 12.5182 141.097 12.1248 141.097 11.7099C141.097 11.295 141.239 10.9551 141.41 10.9551C141.581 10.9551 141.722 10.4642 141.722 9.86327C141.722 9.26234 141.863 8.7705 142.034 8.7705C142.206 8.7705 142.346 8.07608 142.346 7.22777C142.346 6.37947 142.487 5.59837 142.659 5.49221C143.536 4.95069 143.006 1.02959 141.987 0.521191C140.848 -0.0466183 140.277 -0.0982355 140.006 0.341987ZM57.1258 22.6356C57.1258 23.2511 56.9855 23.7537 56.8141 23.7537C56.6427 23.7537 56.5015 24.1754 56.5015 24.6906C56.5015 25.2058 56.6427 25.6275 56.8141 25.6275C56.9855 25.6275 57.1258 25.2662 57.1258 24.824C57.1258 24.3828 57.3439 23.8033 57.6108 23.5365C58.1611 22.9872 58.1036 21.8389 57.5163 21.6451C57.2534 21.5584 57.1258 21.8798 57.1258 22.6356ZM55.7652 26.1554C55.3922 26.5294 55.5636 27.1878 56.034 27.1878C56.2911 27.1878 56.5015 26.9852 56.5015 26.7378C56.5015 26.2168 56.0564 25.8642 55.7652 26.1554ZM20.1354 26.8761C20.2415 27.0475 20.9437 27.1878 21.6956 27.1878C22.4485 27.1878 23.1507 27.328 23.2569 27.5004C23.5149 27.9183 51.7973 27.9183 52.444 27.5004C52.7498 27.3027 47.8626 27.1956 38.3364 27.1927C28.9622 27.1897 23.6932 27.0768 23.5685 26.8761C23.4624 26.7037 22.6033 26.5635 21.6586 26.5635C20.5941 26.5635 20.0156 26.6823 20.1354 26.8761Z" fill="white"/>
<path fill-rule="evenodd" clip-rule="evenodd" d="M1.48338 0.847423C1.18341 0.938 0.920442 1.24772 0.899989 1.53503C0.88051 1.82332 0.828887 2.55086 0.786034 3.15178C0.681821 4.62925 0.920428 5.96063 1.29053 5.96063C1.45999 5.96063 1.56518 5.15616 1.52817 4.13839C1.49214 3.13522 1.56324 2.15251 1.68694 1.95285C1.85445 1.68112 12.6769 1.59054 45.1784 1.59054C68.9758 1.59054 88.3875 1.53308 88.3164 1.46199C87.8937 1.04319 2.82742 0.441288 1.48338 0.847423ZM139.468 1.01689C139.393 1.2409 138.123 1.46491 136.152 1.60126C134.395 1.72397 132.857 1.92948 132.735 2.05999C132.613 2.19049 133.918 2.18173 135.634 2.04148C137.352 1.90124 139.318 1.77754 140.006 1.76683L141.254 1.74638L141.353 3.77608C141.461 6.01128 141.255 6.89952 139.618 11.2677C137.888 15.8832 133.914 21.3772 130.796 23.4614C130.195 23.8637 129.634 24.2708 129.547 24.3662C129.197 24.7578 126.729 26.2518 126.433 26.2518C126.257 26.2518 126.114 26.3589 126.114 26.4914C126.114 26.6238 125.025 27.1283 123.695 27.6143C119.93 28.9876 119.876 29.0149 120.867 29.0392C121.329 29.0509 121.794 28.9204 121.9 28.749C122.006 28.5766 122.506 28.4363 123.011 28.4363C123.516 28.4363 123.929 28.2961 123.929 28.1247C123.929 27.9523 124.28 27.8121 124.709 27.8121C125.138 27.8121 125.49 27.6884 125.49 27.5364C125.49 27.3845 125.735 27.1761 126.036 27.0728C126.336 26.9696 127.144 26.5264 127.831 26.0872C128.518 25.6479 129.325 25.2077 129.626 25.1094C129.926 25.011 130.172 24.8055 130.172 24.6545C130.172 24.5026 130.324 24.3779 130.509 24.3779C130.693 24.3779 131.236 23.9922 131.714 23.5199C132.193 23.0475 133.059 22.2323 133.641 21.7064C134.222 21.1814 135.12 20.2143 135.634 19.5559C136.15 18.8985 136.747 18.1797 136.962 17.9577C137.176 17.7366 137.352 17.3947 137.352 17.199C137.352 17.0022 137.528 16.6458 137.742 16.4072C138.709 15.328 138.913 15.0105 138.913 14.5771C138.913 14.3219 139.053 14.0268 139.224 13.9207C139.397 13.8145 139.537 13.4551 139.537 13.122C139.537 12.789 139.677 12.5163 139.849 12.5163C140.021 12.5163 140.161 12.1647 140.161 11.7361C140.161 11.3066 140.289 10.955 140.446 10.955C140.603 10.955 140.826 10.394 140.941 9.70837C141.057 9.02271 141.28 8.38186 141.437 8.28544C141.594 8.18804 141.722 7.35337 141.722 6.4291C141.722 5.50483 141.863 4.66237 142.034 4.55621C142.589 4.21338 142.4 1.73566 141.775 1.17077C141.12 0.577641 139.647 0.479275 139.468 1.01689ZM106.682 1.81942C107.412 1.88467 108.606 1.88467 109.335 1.81942C110.065 1.75319 109.468 1.69962 108.009 1.69962C106.55 1.69962 105.953 1.75319 106.682 1.81942ZM122.606 2.1233C122.994 2.19829 123.556 2.19536 123.855 2.11745C124.153 2.03953 123.835 1.97817 123.149 1.9811C122.462 1.98499 122.217 2.04928 122.606 2.1233ZM129.236 2.52748L128.456 2.77681L129.236 2.79044C129.665 2.79726 130.578 2.68721 131.264 2.54501L132.513 2.28692L131.264 2.28204C130.578 2.27912 129.665 2.38918 129.236 2.52748ZM124.397 3.16834C123.806 3.32904 124.268 3.35826 125.646 3.2482C126.848 3.15275 127.89 3.02127 127.961 2.95699C128.2 2.74077 125.346 2.90927 124.397 3.16834ZM117.373 3.96502L114.72 4.37213L117.373 4.21825C118.833 4.13449 120.799 3.94944 121.744 3.80821L123.46 3.55109L121.744 3.55499C120.799 3.55694 118.833 3.74102 117.373 3.96502ZM92.7127 4.88832L89.7471 5.28082L92.4001 5.16005C93.8601 5.09382 96.3183 4.91949 97.863 4.7734L100.673 4.50751L98.1756 4.50167C96.8023 4.49875 94.3441 4.67308 92.7127 4.88832ZM111.443 4.71204C111.097 4.93507 111.302 5.01493 112.223 5.01493C112.909 5.01493 113.682 4.87858 113.94 4.71204C114.285 4.489 114.079 4.40914 113.159 4.40914C112.472 4.40914 111.7 4.54549 111.443 4.71204ZM105.667 5.33633C105.561 5.50872 104.156 5.64897 102.527 5.64897C100.771 5.64897 99.58 5.77461 99.58 5.96063C99.58 6.14665 98.3918 6.27327 96.6407 6.27327C94.8135 6.27327 93.6584 6.40085 93.5893 6.61025C93.5201 6.81673 92.4926 6.94042 90.9411 6.93068C89.0721 6.91802 88.3047 7.0349 88.0232 7.37383C87.7466 7.70692 86.9704 7.83353 85.2007 7.83353C83.8586 7.83353 82.6733 7.97475 82.5672 8.14617C82.461 8.31758 81.6809 8.45783 80.8316 8.45783C79.9833 8.45783 79.2898 8.59905 79.2898 8.77046C79.2898 8.94188 78.9548 9.08212 78.5448 9.08212C78.1357 9.08212 77.4082 9.28568 76.928 9.53501C76.4489 9.78337 75.957 9.92556 75.8353 9.85057C75.7135 9.77557 75.4408 9.92264 75.2285 10.1788C75.0162 10.434 74.5789 10.6434 74.2565 10.6434C73.9341 10.6434 73.6712 10.7836 73.6712 10.955C73.6712 11.1274 73.4598 11.2677 73.2027 11.2677C72.9446 11.2677 72.7342 11.4079 72.7342 11.5793C72.7342 11.7517 72.5014 11.892 72.2171 11.892C71.6785 11.892 69.8231 13.1688 68.9514 14.1388C68.6739 14.4486 68.3213 14.7018 68.1674 14.7018C68.0135 14.7018 67.6191 15.0592 67.2908 15.4965C66.9617 15.9348 66.016 17.0217 65.1871 17.9129C64.3593 18.805 63.6814 19.7108 63.6814 19.927C63.6814 20.1432 63.5412 20.3205 63.3697 20.3205C63.1974 20.3205 63.0571 20.5308 63.0571 20.7889C63.0571 21.0461 62.949 21.2564 62.8166 21.2564C62.6831 21.2564 62.3169 21.7833 62.0014 22.4271C61.6858 23.0709 61.3021 23.8423 61.1501 24.1403C60.9972 24.4383 60.8726 24.8951 60.8726 25.1542C60.8726 25.4142 60.7313 25.6275 60.5599 25.6275C60.3885 25.6275 60.257 26.0132 60.2687 26.4855L60.2901 27.3436L60.6359 26.5634C62.163 23.1215 64.0028 19.9202 64.9436 19.0719C65.0391 18.9862 65.4423 18.4485 65.8416 17.8788C69.2319 13.0266 76.6008 9.42398 85.377 8.33024C87.4369 8.0741 89.7549 7.77801 90.5272 7.6738C91.3005 7.56862 93.0556 7.35532 94.4298 7.19949C103.389 6.1788 109.656 5.35289 109.841 5.16882C109.92 5.08895 109.057 5.02467 107.923 5.02467C106.788 5.02467 105.773 5.16492 105.667 5.33633ZM84.1284 5.64897C83.0668 5.83889 83.208 5.87395 85.0644 5.88564C86.2662 5.89246 87.6015 5.7863 88.03 5.64897C89.042 5.32465 85.937 5.32465 84.1284 5.64897ZM76.48 6.32976C72.7498 7.37188 71.81 7.67672 70.5487 8.2533C67.8226 9.49897 64.2814 11.9621 62.1435 14.0999C60.6992 15.5433 58.3744 18.5245 58.3744 18.9326C58.3744 19.0417 58.1212 19.5043 57.8105 19.9601C57.341 20.6506 56.2025 23.4225 55.4526 25.7054C55.288 26.207 54.5779 26.2537 46.7562 26.2752C29.8972 26.3239 21.6927 26.208 21.3996 25.9197C21.2359 25.759 20.8064 25.6275 20.4441 25.6275C19.8432 25.6275 17.5223 24.7967 15.14 23.7302C9.571 21.236 3.86565 14.2898 2.08528 7.83353L1.61193 6.11647L1.58661 7.44395C1.57297 8.17344 1.70155 8.77046 1.87393 8.77046C2.04535 8.77046 2.18559 9.19218 2.18559 9.70642C2.18559 10.2216 2.32584 10.6434 2.49822 10.6434C2.66964 10.6434 2.80989 10.995 2.80989 11.4235C2.80989 11.853 2.95014 12.2036 3.12253 12.2036C3.29394 12.2036 3.43418 12.4052 3.43418 12.6497C3.43418 12.8951 3.66014 13.3217 3.93576 13.5973C4.21236 13.8739 4.3682 14.3648 4.28347 14.6891C4.17634 15.1001 4.26009 15.2287 4.56201 15.1128C4.82108 15.0134 4.99541 15.1488 4.99541 15.4488C4.99541 15.7244 5.13567 15.9504 5.30708 15.9504C5.47947 15.9504 5.61972 16.1004 5.61972 16.2844C5.61972 16.6643 5.66549 16.7169 8.41493 19.517C9.52328 20.6458 10.6122 21.5691 10.8342 21.5691C11.0563 21.5691 11.2384 21.7093 11.2384 21.8807C11.2384 22.0531 11.4488 22.1934 11.7069 22.1934C11.964 22.1934 12.1753 22.3015 12.1753 22.4349C12.1753 22.5674 12.6662 22.9404 13.2671 23.2637C13.8681 23.5881 14.3599 23.9708 14.3599 24.115C14.3599 24.2601 14.6414 24.3779 14.9842 24.3779C15.328 24.3779 15.6085 24.5191 15.6085 24.6906C15.6085 24.862 16.0302 25.0032 16.5454 25.0032C17.0606 25.0032 17.4814 25.1434 17.4814 25.3149C17.4814 25.4863 17.908 25.6275 18.4281 25.6275C18.9813 25.6275 19.4488 25.8213 19.5539 26.095C19.6854 26.4378 20.224 26.5634 21.5544 26.5634C22.5566 26.5634 23.4624 26.7037 23.5685 26.8761C24.0195 27.6046 55.472 27.2676 55.6639 26.5323C55.7584 26.171 55.9853 25.9693 56.1684 26.0823C56.3836 26.2158 56.5015 25.8398 56.5015 25.0207C56.5015 24.3244 56.6427 23.7536 56.8141 23.7536C56.9855 23.7536 57.1258 23.2472 57.1258 22.6277C57.1258 21.8242 57.2436 21.5476 57.5378 21.6596C57.8027 21.7619 57.9419 21.5798 57.9283 21.1473C57.9166 20.7782 58.0695 20.5075 58.2682 20.5445C58.4659 20.5825 58.5945 20.376 58.5516 20.0858C58.4698 19.5306 60.2278 16.8776 61.418 15.7585C61.8046 15.3952 62.1212 15.0027 62.1212 14.8859C62.1212 14.6346 63.5772 13.1405 63.8207 13.1405C63.9833 13.1405 65.2066 12.151 66.0423 11.3456C66.2643 11.1313 66.6909 10.955 66.9889 10.955C67.2879 10.955 67.4408 10.8644 67.3298 10.7534C67.0474 10.471 70.4932 8.69936 70.8711 8.93214C71.0396 9.03635 71.2626 8.90292 71.3649 8.63411C71.4681 8.3653 71.8888 8.14617 72.2999 8.14617C72.7099 8.14617 73.0469 8.00592 73.0469 7.83353C73.0469 7.66212 73.5377 7.52187 74.1387 7.52187C74.7396 7.52187 75.2314 7.38162 75.2314 7.20923C75.2314 7.02613 76.33 6.89757 77.9029 6.89757C79.4944 6.89757 80.5014 6.77875 80.3933 6.60344C80.294 6.44176 80.8121 6.25574 81.5455 6.18951C82.2789 6.12425 81.6858 6.05998 80.2258 6.04732C78.7668 6.03466 77.0809 6.16224 76.48 6.32976ZM59.8061 27.89C58.689 31.8393 58.686 31.8938 58.7562 47.3951L58.8263 62.6179L59.024 47.4779C59.2042 33.6966 59.3727 30.7115 60.1129 28.2026C60.2278 27.8159 60.2298 27.5004 60.1187 27.5004C60.0067 27.5004 59.8665 27.6757 59.8061 27.89ZM117.061 29.3421C116.803 29.4863 115.469 29.6927 114.096 29.7999C112.722 29.908 109.632 30.2625 107.228 30.5878L102.858 31.18L105.589 31.2131C107.225 31.2325 108.321 31.1205 108.321 30.9335C108.321 30.7485 109.497 30.6219 111.224 30.6219C112.821 30.6219 114.261 30.4865 114.427 30.3219C114.591 30.1573 115.704 29.9956 116.9 29.9625C119.297 29.8973 121.022 29.0519 118.722 29.0704C118.066 29.0753 117.318 29.198 117.061 29.3421ZM98.9557 31.5578C98.5262 31.6952 97.6935 31.8218 97.1033 31.8393C92.4089 31.9757 84.9085 38.0287 84.9085 41.682C84.9085 41.9303 84.78 42.2138 84.6232 42.3112C84.0505 42.6657 83.994 45.4473 83.8752 79.1623C83.8099 98.049 83.843 109.006 83.9502 103.511C84.0573 98.0169 84.181 82.3568 84.2248 68.7109C84.2745 53.2641 84.4186 43.7847 84.6066 43.5968C84.7732 43.4312 84.9085 43.1166 84.9085 42.8985C84.9085 42.2946 86.5301 38.9929 87.244 38.1437C89.001 36.0526 91.2917 34.055 91.9346 34.055C92.1907 34.055 92.4001 33.9148 92.4001 33.7434C92.4001 33.572 92.7517 33.4307 93.1812 33.4307C93.6098 33.4307 93.9613 33.3236 93.9613 33.1931C93.9613 32.7879 97.1023 32.1432 99.9706 31.9591C101.472 31.8627 102.702 31.663 102.702 31.515C102.702 31.1848 100.026 31.215 98.9557 31.5578Z" fill="white"/>
</svg>
