<svg width="24" height="25" viewBox="0 0 24 25" fill="none" xmlns="http://www.w3.org/2000/svg">
<path d="M2 9.5V7C2 4.51 4.01 2.5 6.5 2.5H9" stroke="#8FA198" stroke-width="2" stroke-linecap="round" stroke-linejoin="round"/>
<path d="M15 2.5H17.5C19.99 2.5 22 4.51 22 7V9.5" stroke="#8FA198" stroke-width="2" stroke-linecap="round" stroke-linejoin="round"/>
<path d="M22 16.5V18C22 20.49 19.99 22.5 17.5 22.5H16" stroke="#8FA198" stroke-width="2" stroke-linecap="round" stroke-linejoin="round"/>
<path d="M9 22.5H6.5C4.01 22.5 2 20.49 2 18V15.5" stroke="#8FA198" stroke-width="2" stroke-linecap="round" stroke-linejoin="round"/>
<path d="M8.5 11.5C9.88071 11.5 11 10.3807 11 9C11 7.61929 9.88071 6.5 8.5 6.5C7.11929 6.5 6 7.61929 6 9C6 10.3807 7.11929 11.5 8.5 11.5Z" stroke="#8FA198" stroke-width="2" stroke-linecap="round" stroke-linejoin="round"/>
<path d="M7.5 18.5C8.32843 18.5 9 17.8284 9 17C9 16.1716 8.32843 15.5 7.5 15.5C6.67157 15.5 6 16.1716 6 17C6 17.8284 6.67157 18.5 7.5 18.5Z" stroke="#8FA198" stroke-width="2" stroke-linecap="round" stroke-linejoin="round"/>
<path d="M16.5 9.5C17.3284 9.5 18 8.82843 18 8C18 7.17157 17.3284 6.5 16.5 6.5C15.6716 6.5 15 7.17157 15 8C15 8.82843 15.6716 9.5 16.5 9.5Z" stroke="#8FA198" stroke-width="2" stroke-linecap="round" stroke-linejoin="round"/>
<path d="M15.5 18.5C16.8807 18.5 18 17.3807 18 16C18 14.6193 16.8807 13.5 15.5 13.5C14.1193 13.5 13 14.6193 13 16C13 17.3807 14.1193 18.5 15.5 18.5Z" stroke="#8FA198" stroke-width="2" stroke-linecap="round" stroke-linejoin="round"/>
</svg>
