<svg width="32" height="32" viewBox="0 0 32 32" fill="none" xmlns="http://www.w3.org/2000/svg">
<g clip-path="url(#clip0_2786_2821)">
<path d="M26.0487 0H5.95125C2.66606 0.0038125 0.0038125 2.66606 0 5.95125V26.0487C0.0038125 29.3339 2.66606 31.9962 5.95125 32H26.0487C29.3339 31.9962 31.9962 29.3339 32 26.0487V5.95125C31.9962 2.66606 29.3339 0.0038125 26.0487 0ZM29.7909 5.95125V7.88069H24.1947L20.0094 2.20906H26.0488C28.1146 2.21137 29.7886 3.88544 29.7909 5.95125ZM17.2639 2.20906L21.4492 7.88069H14.7361L10.5507 2.20906H17.2639ZM2.20906 5.95125C2.21137 3.8855 3.88544 2.21144 5.95125 2.20906H7.80531L11.9907 7.88069H2.20906V5.95125ZM26.0487 29.7909H5.95125C3.8855 29.7886 2.21144 28.1146 2.20906 26.0487V10.0898H29.7909V26.0487C29.7886 28.1145 28.1145 29.7886 26.0487 29.7909Z" fill="black"/>
<path d="M21.8931 18.9833L13.1546 13.9382C12.6263 13.6332 11.9508 13.8142 11.6458 14.3425C11.5489 14.5104 11.4978 14.7009 11.4978 14.8948V24.9851C11.4978 25.5951 11.9923 26.0897 12.6023 26.0897C12.7962 26.0897 12.9867 26.0387 13.1546 25.9417L21.8931 20.8965C22.4214 20.5915 22.6024 19.916 22.2974 19.3877C22.2004 19.2198 22.061 19.0803 21.8931 18.9833ZM13.7069 23.072V16.8079L19.1317 19.9399L13.7069 23.072Z" fill="black"/>
</g>
<defs>
<clipPath id="clip0_2786_2821">
<rect width="32" height="32" fill="white"/>
</clipPath>
</defs>
</svg>
